# xmcd
#
# Track frame offsets: 
#        150
#        18396
#        40875
#        57925
#        81990
#        99484
#        111902
#        131406
#        151666
#        173144
#        195317
#
# Disc length: 2770 seconds
#
# Revision: 2
# Processed by: cddbd v1.5.2PL0 Copyright (c) Steve Scherf et al.
# Submitted via: ExactAudioCopy v0.95b4
#
DISCID=820ad00b
DTITLE=Rui Veloso - Rui Veloso
DYEAR=1987
DGENRE=Portuguesa
TTITLE0=Porto Côvo
TTITLE1=É Triste Ser-se Crescido
TTITLE2=Cavaleiro Andante
TTITLE3=Directo à Cabeça 
TTITLE4=Valsinha Das Medalhas
TTITLE5=A Origem Do Mal
TTITLE6=O Negro Do Rádio De Pilhas
TTITLE7=Porto Sentido
TTITLE8=Beirã
TTITLE9=Champanhe
TTITLE10=África
EXTD=
EXTT0=
EXTT1=
EXTT2=
EXTT3=
EXTT4=
EXTT5=
EXTT6=
EXTT7=
EXTT8=
EXTT9=
EXTT10=
PLAYORDER=
